# Blender v2.76 (sub 0) OBJ File: 'pool.blend'
# www.blender.org
mtllib pool.mtl
o Cube
v 1.052225 -1.000000 -1.052225
v 1.052225 -1.000000 1.052225
v -1.052225 -1.000000 1.052225
v -1.052225 -1.000000 -1.052225
v 1.052225 1.000000 -1.052224
v 1.052224 1.000000 1.052225
v -1.052225 1.000000 1.052225
v -1.052225 1.000000 -1.052225
v 1.473114 -1.000000 -1.473115
v 1.473115 -1.000000 1.473114
v -1.473115 -1.000000 1.473115
v -1.473114 -1.000000 -1.473115
v 1.473115 1.000000 -1.473114
v 1.473114 1.000000 1.473115
v -1.473115 1.000000 1.473115
v -1.473115 1.000000 -1.473114
v 0.153563 -0.276798 1.194303
v 1.052225 -1.000000 -1.052225
v 1.052225 -1.000000 1.052225
v -1.052225 -1.000000 1.052225
v -1.052225 -1.000000 -1.052225
vt 0.000000 0.000000
vt 1.000000 0.625000
vt 0.375000 0.625000
vt 0.375000 0.000000
vt 0.750000 0.250000
vt 0.750000 0.875000
vt 0.125000 0.875000
vt 1.000000 0.000000
vt 0.750000 0.244322
vt 0.125000 0.250000
vt 0.375000 0.250000
vt 1.000000 0.250000
vt 1.000000 0.875000
vt 1.000000 0.750000
vt 0.125000 0.750000
vt 0.125000 0.125000
vt 1.000000 1.000000
vt 0.125000 1.000000
vt 0.125000 0.375000
vt 0.375000 1.000000
vt 0.375000 0.125000
vt 0.875000 0.125000
vt 0.875000 1.000000
vt 0.250000 1.000000
vt 0.750000 0.125000
vt 0.875000 0.000000
vt 0.875000 0.875000
vt 0.750000 0.750000
vt 0.000000 0.875000
vt 0.375000 0.875000
vt 1.000000 0.125000
vt 1.000000 0.375000
vt 0.250000 0.125000
vt 0.735917 0.745858
vn 0.000000 0.000000 1.000000
vn 0.000000 1.000000 0.000000
vn -1.000000 -0.000000 -0.000000
vn 0.000000 -0.000000 -1.000000
vn 1.000000 0.000000 0.000000
usemtl Material.001
s off
f 3/1/1 20/1/1 21/1/1
f 21/2/2 20/3/2 19/4/2
f 2/5/3 6/6/3 5/7/3
f 3/3/4 7/4/4 6/8/4
f 4/6/5 8/9/5 7/10/5
f 8/11/1 4/12/1 1/13/1
f 13/14/5 14/15/5 10/16/5
f 14/17/1 15/18/1 11/19/1
f 11/17/3 15/20/3 16/21/3
f 9/22/4 12/23/4 16/24/4
f 2/1/1 19/1/1 20/1/1
f 4/1/1 21/1/1 18/1/1
f 1/1/1 18/1/1 19/1/1
f 8/25/2 5/16/2 13/1/2
f 16/26/2 15/27/2 7/28/2
f 15/27/2 14/29/2 6/15/2
f 14/29/2 13/1/2 5/16/2
f 4/1/1 3/1/1 21/1/1
f 18/8/2 21/2/2 19/4/2
f 1/10/3 2/5/3 5/7/3
f 2/2/4 3/3/4 6/8/4
f 3/7/5 4/6/5 7/10/5
f 5/30/1 8/11/1 1/13/1
f 9/31/5 13/14/5 10/16/5
f 10/32/1 14/17/1 11/19/1
f 12/31/3 11/17/3 16/21/3
f 13/33/4 9/22/4 16/24/4
f 3/1/1 2/1/1 20/1/1
f 1/1/1 4/1/1 18/1/1
f 2/1/1 1/1/1 19/1/1
f 16/26/2 8/25/2 13/1/2
f 8/25/2 16/26/2 7/28/2
f 7/34/2 15/27/2 6/15/2
f 6/15/2 14/29/2 5/16/2
